solid CATIA STL
  facet normal  0.000000e+000  0.000000e+000  1.000000e+000
    outer loop
      vertex -2.900000e+001 -2.775000e+001  2.065000e+001
      vertex  2.900000e+001 -2.775000e+001  2.065000e+001
      vertex -2.900000e+001  2.775000e+001  2.065000e+001
    endloop
  endfacet
  facet normal  -0.000000e+000  0.000000e+000  1.000000e+000
    outer loop
      vertex -2.900000e+001  2.775000e+001  2.065000e+001
      vertex  2.900000e+001 -2.775000e+001  2.065000e+001
      vertex  2.900000e+001  2.775000e+001  2.065000e+001
    endloop
  endfacet
  facet normal  0.000000e+000  0.000000e+000 -1.000000e+000
    outer loop
      vertex -2.900000e+001 -2.775000e+001  0.000000e+000
      vertex -2.900000e+001  2.775000e+001  0.000000e+000
      vertex  2.900000e+001 -2.775000e+001  0.000000e+000
    endloop
  endfacet
  facet normal  0.000000e+000  0.000000e+000 -1.000000e+000
    outer loop
      vertex  2.900000e+001 -2.775000e+001  0.000000e+000
      vertex -2.900000e+001  2.775000e+001  0.000000e+000
      vertex  2.900000e+001  2.775000e+001  0.000000e+000
    endloop
  endfacet
  facet normal  0.000000e+000  1.000000e+000  0.000000e+000
    outer loop
      vertex -2.900000e+001  2.775000e+001  2.065000e+001
      vertex  2.900000e+001  2.775000e+001  2.065000e+001
      vertex -2.900000e+001  2.775000e+001  0.000000e+000
    endloop
  endfacet
  facet normal  0.000000e+000  1.000000e+000  0.000000e+000
    outer loop
      vertex -2.900000e+001  2.775000e+001  0.000000e+000
      vertex  2.900000e+001  2.775000e+001  2.065000e+001
      vertex  2.900000e+001  2.775000e+001  0.000000e+000
    endloop
  endfacet
  facet normal  9.999999e-001  0.000000e+000  0.000000e+000
    outer loop
      vertex  2.900000e+001 -2.775000e+001  2.065000e+001
      vertex  2.900000e+001 -2.775000e+001  0.000000e+000
      vertex  2.900000e+001  2.775000e+001  2.065000e+001
    endloop
  endfacet
  facet normal  9.999999e-001  0.000000e+000  0.000000e+000
    outer loop
      vertex  2.900000e+001  2.775000e+001  2.065000e+001
      vertex  2.900000e+001 -2.775000e+001  0.000000e+000
      vertex  2.900000e+001  2.775000e+001  0.000000e+000
    endloop
  endfacet
  facet normal  0.000000e+000 -1.000000e+000  0.000000e+000
    outer loop
      vertex  2.900000e+001 -2.775000e+001  2.065000e+001
      vertex -2.900000e+001 -2.775000e+001  2.065000e+001
      vertex  2.900000e+001 -2.775000e+001  0.000000e+000
    endloop
  endfacet
  facet normal  0.000000e+000 -1.000000e+000  0.000000e+000
    outer loop
      vertex  2.900000e+001 -2.775000e+001  0.000000e+000
      vertex -2.900000e+001 -2.775000e+001  2.065000e+001
      vertex -2.900000e+001 -2.775000e+001  0.000000e+000
    endloop
  endfacet
  facet normal -9.999999e-001  0.000000e+000  0.000000e+000
    outer loop
      vertex -2.900000e+001  2.775000e+001  2.065000e+001
      vertex -2.900000e+001  2.775000e+001  0.000000e+000
      vertex -2.900000e+001 -2.775000e+001  2.065000e+001
    endloop
  endfacet
  facet normal -9.999999e-001  0.000000e+000  0.000000e+000
    outer loop
      vertex -2.900000e+001 -2.775000e+001  2.065000e+001
      vertex -2.900000e+001  2.775000e+001  0.000000e+000
      vertex -2.900000e+001 -2.775000e+001  0.000000e+000
    endloop
  endfacet
endsolid CATIA STL
