solid CATIA STL
  facet normal  0.000000e+000  1.000000e+000  0.000000e+000
    outer loop
      vertex -3.449439e+000  2.660000e+001  3.281922e+001
      vertex  3.449439e+000  2.660000e+001  3.281922e+001
      vertex -1.019756e+001  2.660000e+001  3.138486e+001
    endloop
  endfacet
  facet normal  0.000000e+000  9.999999e-001  0.000000e+000
    outer loop
      vertex -1.019756e+001  2.660000e+001  3.138486e+001
      vertex  3.449439e+000  2.660000e+001  3.281922e+001
      vertex  1.019756e+001  2.660000e+001  3.138486e+001
    endloop
  endfacet
  facet normal  0.000000e+000  1.000000e+000  0.000000e+000
    outer loop
      vertex -1.019756e+001  2.660000e+001  3.138486e+001
      vertex  1.019756e+001  2.660000e+001  3.138486e+001
      vertex -1.650000e+001  2.660000e+001  2.857884e+001
    endloop
  endfacet
  facet normal  0.000000e+000  1.000000e+000  0.000000e+000
    outer loop
      vertex -1.650000e+001  2.660000e+001  2.857884e+001
      vertex  1.019756e+001  2.660000e+001  3.138486e+001
      vertex  1.650000e+001  2.660000e+001  2.857884e+001
    endloop
  endfacet
  facet normal  0.000000e+000  1.000000e+000  0.000000e+000
    outer loop
      vertex -1.650000e+001  2.660000e+001  2.857884e+001
      vertex  1.650000e+001  2.660000e+001  2.857884e+001
      vertex -2.208131e+001  2.660000e+001  2.452378e+001
    endloop
  endfacet
  facet normal  0.000000e+000  1.000000e+000  0.000000e+000
    outer loop
      vertex -2.208131e+001  2.660000e+001  2.452378e+001
      vertex  1.650000e+001  2.660000e+001  2.857884e+001
      vertex  2.208131e+001  2.660000e+001  2.452378e+001
    endloop
  endfacet
  facet normal  0.000000e+000  1.000000e+000  0.000000e+000
    outer loop
      vertex -2.208131e+001  2.660000e+001  2.452378e+001
      vertex  2.208131e+001  2.660000e+001  2.452378e+001
      vertex -2.669756e+001  2.660000e+001  1.939691e+001
    endloop
  endfacet
  facet normal  0.000000e+000  1.000000e+000  0.000000e+000
    outer loop
      vertex -2.669756e+001  2.660000e+001  1.939691e+001
      vertex  2.208131e+001  2.660000e+001  2.452378e+001
      vertex  2.669756e+001  2.660000e+001  1.939691e+001
    endloop
  endfacet
  facet normal  0.000000e+000  1.000000e+000  0.000000e+000
    outer loop
      vertex -2.669756e+001  2.660000e+001  1.939691e+001
      vertex  2.669756e+001  2.660000e+001  1.939691e+001
      vertex -3.014700e+001  2.660000e+001  1.342231e+001
    endloop
  endfacet
  facet normal  0.000000e+000  1.000000e+000  0.000000e+000
    outer loop
      vertex -3.014700e+001  2.660000e+001  1.342231e+001
      vertex  2.669756e+001  2.660000e+001  1.939691e+001
      vertex  3.014700e+001  2.660000e+001  1.342231e+001
    endloop
  endfacet
  facet normal  0.000000e+000  1.000000e+000  0.000000e+000
    outer loop
      vertex -3.014700e+001  2.660000e+001  1.342231e+001
      vertex  3.014700e+001  2.660000e+001  1.342231e+001
      vertex -3.227887e+001  2.660000e+001  6.861086e+000
    endloop
  endfacet
  facet normal  0.000000e+000  1.000000e+000  0.000000e+000
    outer loop
      vertex -3.227887e+001  2.660000e+001  6.861086e+000
      vertex  3.014700e+001  2.660000e+001  1.342231e+001
      vertex  3.227887e+001  2.660000e+001  6.861086e+000
    endloop
  endfacet
  facet normal  0.000000e+000  1.000000e+000  0.000000e+000
    outer loop
      vertex -3.227887e+001  2.660000e+001  6.861086e+000
      vertex  3.227887e+001  2.660000e+001  6.861086e+000
      vertex -3.300000e+001  2.660000e+001  0.000000e+000
    endloop
  endfacet
  facet normal  0.000000e+000  1.000000e+000  0.000000e+000
    outer loop
      vertex -3.300000e+001  2.660000e+001  0.000000e+000
      vertex  3.227887e+001  2.660000e+001  6.861086e+000
      vertex  3.300000e+001  2.660000e+001  4.041201e-015
    endloop
  endfacet
  facet normal  0.000000e+000  1.000000e+000  0.000000e+000
    outer loop
      vertex -3.300000e+001  2.660000e+001  0.000000e+000
      vertex  3.300000e+001  2.660000e+001  4.041201e-015
      vertex -3.227887e+001  2.660000e+001 -6.861086e+000
    endloop
  endfacet
  facet normal  0.000000e+000  1.000000e+000  0.000000e+000
    outer loop
      vertex -3.227887e+001  2.660000e+001 -6.861086e+000
      vertex  3.300000e+001  2.660000e+001  4.041201e-015
      vertex  3.227887e+001  2.660000e+001 -6.861086e+000
    endloop
  endfacet
  facet normal  0.000000e+000  1.000000e+000  0.000000e+000
    outer loop
      vertex -3.227887e+001  2.660000e+001 -6.861086e+000
      vertex  3.227887e+001  2.660000e+001 -6.861086e+000
      vertex -3.014700e+001  2.660000e+001 -1.342231e+001
    endloop
  endfacet
  facet normal  0.000000e+000  1.000000e+000  0.000000e+000
    outer loop
      vertex -3.014700e+001  2.660000e+001 -1.342231e+001
      vertex  3.227887e+001  2.660000e+001 -6.861086e+000
      vertex  3.014700e+001  2.660000e+001 -1.342231e+001
    endloop
  endfacet
  facet normal  0.000000e+000  1.000000e+000  0.000000e+000
    outer loop
      vertex -3.014700e+001  2.660000e+001 -1.342231e+001
      vertex  3.014700e+001  2.660000e+001 -1.342231e+001
      vertex -2.669756e+001  2.660000e+001 -1.939691e+001
    endloop
  endfacet
  facet normal  0.000000e+000  1.000000e+000  0.000000e+000
    outer loop
      vertex -2.669756e+001  2.660000e+001 -1.939691e+001
      vertex  3.014700e+001  2.660000e+001 -1.342231e+001
      vertex  2.669756e+001  2.660000e+001 -1.939691e+001
    endloop
  endfacet
  facet normal  0.000000e+000  1.000000e+000  0.000000e+000
    outer loop
      vertex -2.669756e+001  2.660000e+001 -1.939691e+001
      vertex  2.669756e+001  2.660000e+001 -1.939691e+001
      vertex -2.208131e+001  2.660000e+001 -2.452378e+001
    endloop
  endfacet
  facet normal  0.000000e+000  1.000000e+000  0.000000e+000
    outer loop
      vertex -2.208131e+001  2.660000e+001 -2.452378e+001
      vertex  2.669756e+001  2.660000e+001 -1.939691e+001
      vertex  2.208131e+001  2.660000e+001 -2.452378e+001
    endloop
  endfacet
  facet normal  0.000000e+000  1.000000e+000  0.000000e+000
    outer loop
      vertex -2.208131e+001  2.660000e+001 -2.452378e+001
      vertex  2.208131e+001  2.660000e+001 -2.452378e+001
      vertex -1.650000e+001  2.660000e+001 -2.857884e+001
    endloop
  endfacet
  facet normal  0.000000e+000  1.000000e+000  0.000000e+000
    outer loop
      vertex -1.650000e+001  2.660000e+001 -2.857884e+001
      vertex  2.208131e+001  2.660000e+001 -2.452378e+001
      vertex  1.650000e+001  2.660000e+001 -2.857884e+001
    endloop
  endfacet
  facet normal  0.000000e+000  1.000000e+000  0.000000e+000
    outer loop
      vertex -1.650000e+001  2.660000e+001 -2.857884e+001
      vertex  1.650000e+001  2.660000e+001 -2.857884e+001
      vertex -1.019756e+001  2.660000e+001 -3.138486e+001
    endloop
  endfacet
  facet normal  0.000000e+000  1.000000e+000  0.000000e+000
    outer loop
      vertex -1.019756e+001  2.660000e+001 -3.138486e+001
      vertex  1.650000e+001  2.660000e+001 -2.857884e+001
      vertex  1.019756e+001  2.660000e+001 -3.138486e+001
    endloop
  endfacet
  facet normal  0.000000e+000  9.999999e-001  0.000000e+000
    outer loop
      vertex -1.019756e+001  2.660000e+001 -3.138486e+001
      vertex  1.019756e+001  2.660000e+001 -3.138486e+001
      vertex -3.449439e+000  2.660000e+001 -3.281922e+001
    endloop
  endfacet
  facet normal  0.000000e+000  1.000000e+000  0.000000e+000
    outer loop
      vertex -3.449439e+000  2.660000e+001 -3.281922e+001
      vertex  1.019756e+001  2.660000e+001 -3.138486e+001
      vertex  3.449439e+000  2.660000e+001 -3.281922e+001
    endloop
  endfacet
  facet normal  -0.000000e+000 -1.000000e+000  0.000000e+000
    outer loop
      vertex -3.300000e+001  0.000000e+000  0.000000e+000
      vertex  3.227887e+001  0.000000e+000  6.861086e+000
      vertex -3.227887e+001  0.000000e+000  6.861086e+000
    endloop
  endfacet
  facet normal  0.000000e+000 -1.000000e+000  0.000000e+000
    outer loop
      vertex -3.227887e+001  0.000000e+000  6.861086e+000
      vertex  3.227887e+001  0.000000e+000  6.861086e+000
      vertex  3.014700e+001  0.000000e+000  1.342231e+001
    endloop
  endfacet
  facet normal  -0.000000e+000 -1.000000e+000  0.000000e+000
    outer loop
      vertex -3.227887e+001  0.000000e+000  6.861086e+000
      vertex  3.014700e+001  0.000000e+000  1.342231e+001
      vertex -3.014700e+001  0.000000e+000  1.342231e+001
    endloop
  endfacet
  facet normal  0.000000e+000 -1.000000e+000  0.000000e+000
    outer loop
      vertex -3.014700e+001  0.000000e+000  1.342231e+001
      vertex  3.014700e+001  0.000000e+000  1.342231e+001
      vertex  2.669756e+001  0.000000e+000  1.939691e+001
    endloop
  endfacet
  facet normal  -0.000000e+000 -1.000000e+000  0.000000e+000
    outer loop
      vertex -3.014700e+001  0.000000e+000  1.342231e+001
      vertex  2.669756e+001  0.000000e+000  1.939691e+001
      vertex -2.669756e+001  0.000000e+000  1.939691e+001
    endloop
  endfacet
  facet normal  0.000000e+000 -1.000000e+000  0.000000e+000
    outer loop
      vertex -2.669756e+001  0.000000e+000  1.939691e+001
      vertex  2.669756e+001  0.000000e+000  1.939691e+001
      vertex  2.208131e+001  0.000000e+000  2.452378e+001
    endloop
  endfacet
  facet normal  -0.000000e+000 -1.000000e+000  0.000000e+000
    outer loop
      vertex -2.669756e+001  0.000000e+000  1.939691e+001
      vertex  2.208131e+001  0.000000e+000  2.452378e+001
      vertex -2.208131e+001  0.000000e+000  2.452378e+001
    endloop
  endfacet
  facet normal  0.000000e+000 -1.000000e+000  0.000000e+000
    outer loop
      vertex -2.208131e+001  0.000000e+000  2.452378e+001
      vertex  2.208131e+001  0.000000e+000  2.452378e+001
      vertex  1.650000e+001  0.000000e+000  2.857884e+001
    endloop
  endfacet
  facet normal  -0.000000e+000 -1.000000e+000  0.000000e+000
    outer loop
      vertex -2.208131e+001  0.000000e+000  2.452378e+001
      vertex  1.650000e+001  0.000000e+000  2.857884e+001
      vertex -1.650000e+001  0.000000e+000  2.857884e+001
    endloop
  endfacet
  facet normal  0.000000e+000 -1.000000e+000  0.000000e+000
    outer loop
      vertex -1.650000e+001  0.000000e+000  2.857884e+001
      vertex  1.650000e+001  0.000000e+000  2.857884e+001
      vertex  1.019756e+001  0.000000e+000  3.138486e+001
    endloop
  endfacet
  facet normal  -0.000000e+000 -1.000000e+000  0.000000e+000
    outer loop
      vertex -1.650000e+001  0.000000e+000  2.857884e+001
      vertex  1.019756e+001  0.000000e+000  3.138486e+001
      vertex -1.019756e+001  0.000000e+000  3.138486e+001
    endloop
  endfacet
  facet normal  0.000000e+000 -9.999999e-001  0.000000e+000
    outer loop
      vertex -1.019756e+001  0.000000e+000  3.138486e+001
      vertex  1.019756e+001  0.000000e+000  3.138486e+001
      vertex  3.449439e+000  0.000000e+000  3.281922e+001
    endloop
  endfacet
  facet normal  -0.000000e+000 -1.000000e+000  0.000000e+000
    outer loop
      vertex -1.019756e+001  0.000000e+000  3.138486e+001
      vertex  3.449439e+000  0.000000e+000  3.281922e+001
      vertex -3.449439e+000  0.000000e+000  3.281922e+001
    endloop
  endfacet
  facet normal  0.000000e+000 -1.000000e+000  0.000000e+000
    outer loop
      vertex  3.227887e+001  0.000000e+000  6.861086e+000
      vertex -3.300000e+001  0.000000e+000  0.000000e+000
      vertex  3.300000e+001  0.000000e+000  4.041201e-015
    endloop
  endfacet
  facet normal  0.000000e+000 -1.000000e+000  0.000000e+000
    outer loop
      vertex  3.300000e+001  0.000000e+000  4.041201e-015
      vertex -3.300000e+001  0.000000e+000  0.000000e+000
      vertex -3.227887e+001  0.000000e+000 -6.861086e+000
    endloop
  endfacet
  facet normal  0.000000e+000 -1.000000e+000  0.000000e+000
    outer loop
      vertex  3.300000e+001  0.000000e+000  4.041201e-015
      vertex -3.227887e+001  0.000000e+000 -6.861086e+000
      vertex  3.227887e+001  0.000000e+000 -6.861086e+000
    endloop
  endfacet
  facet normal  -0.000000e+000 -1.000000e+000  0.000000e+000
    outer loop
      vertex  3.227887e+001  0.000000e+000 -6.861086e+000
      vertex -3.227887e+001  0.000000e+000 -6.861086e+000
      vertex -3.014700e+001  0.000000e+000 -1.342231e+001
    endloop
  endfacet
  facet normal  0.000000e+000 -1.000000e+000  0.000000e+000
    outer loop
      vertex  3.227887e+001  0.000000e+000 -6.861086e+000
      vertex -3.014700e+001  0.000000e+000 -1.342231e+001
      vertex  3.014700e+001  0.000000e+000 -1.342231e+001
    endloop
  endfacet
  facet normal  -0.000000e+000 -1.000000e+000  0.000000e+000
    outer loop
      vertex  3.014700e+001  0.000000e+000 -1.342231e+001
      vertex -3.014700e+001  0.000000e+000 -1.342231e+001
      vertex -2.669756e+001  0.000000e+000 -1.939691e+001
    endloop
  endfacet
  facet normal  0.000000e+000 -1.000000e+000  0.000000e+000
    outer loop
      vertex  3.014700e+001  0.000000e+000 -1.342231e+001
      vertex -2.669756e+001  0.000000e+000 -1.939691e+001
      vertex  2.669756e+001  0.000000e+000 -1.939691e+001
    endloop
  endfacet
  facet normal  -0.000000e+000 -1.000000e+000  0.000000e+000
    outer loop
      vertex  2.669756e+001  0.000000e+000 -1.939691e+001
      vertex -2.669756e+001  0.000000e+000 -1.939691e+001
      vertex -2.208131e+001  0.000000e+000 -2.452378e+001
    endloop
  endfacet
  facet normal  0.000000e+000 -1.000000e+000  0.000000e+000
    outer loop
      vertex  2.669756e+001  0.000000e+000 -1.939691e+001
      vertex -2.208131e+001  0.000000e+000 -2.452378e+001
      vertex  2.208131e+001  0.000000e+000 -2.452378e+001
    endloop
  endfacet
  facet normal  -0.000000e+000 -1.000000e+000  0.000000e+000
    outer loop
      vertex  2.208131e+001  0.000000e+000 -2.452378e+001
      vertex -2.208131e+001  0.000000e+000 -2.452378e+001
      vertex -1.650000e+001  0.000000e+000 -2.857884e+001
    endloop
  endfacet
  facet normal  0.000000e+000 -1.000000e+000  0.000000e+000
    outer loop
      vertex  2.208131e+001  0.000000e+000 -2.452378e+001
      vertex -1.650000e+001  0.000000e+000 -2.857884e+001
      vertex  1.650000e+001  0.000000e+000 -2.857884e+001
    endloop
  endfacet
  facet normal  -0.000000e+000 -1.000000e+000  0.000000e+000
    outer loop
      vertex  1.650000e+001  0.000000e+000 -2.857884e+001
      vertex -1.650000e+001  0.000000e+000 -2.857884e+001
      vertex -1.019756e+001  0.000000e+000 -3.138486e+001
    endloop
  endfacet
  facet normal  0.000000e+000 -1.000000e+000  0.000000e+000
    outer loop
      vertex  1.650000e+001  0.000000e+000 -2.857884e+001
      vertex -1.019756e+001  0.000000e+000 -3.138486e+001
      vertex  1.019756e+001  0.000000e+000 -3.138486e+001
    endloop
  endfacet
  facet normal  -0.000000e+000 -9.999999e-001  0.000000e+000
    outer loop
      vertex  1.019756e+001  0.000000e+000 -3.138486e+001
      vertex -1.019756e+001  0.000000e+000 -3.138486e+001
      vertex -3.449439e+000  0.000000e+000 -3.281922e+001
    endloop
  endfacet
  facet normal  0.000000e+000 -1.000000e+000  0.000000e+000
    outer loop
      vertex  1.019756e+001  0.000000e+000 -3.138486e+001
      vertex -3.449439e+000  0.000000e+000 -3.281922e+001
      vertex  3.449439e+000  0.000000e+000 -3.281922e+001
    endloop
  endfacet
  facet normal -9.945219e-001  -0.000000e+000 -1.045286e-001
    outer loop
      vertex -3.300000e+001  0.000000e+000  0.000000e+000
      vertex -3.300000e+001  2.660000e+001  0.000000e+000
      vertex -3.227887e+001  0.000000e+000 -6.861086e+000
    endloop
  endfacet
  facet normal -9.945219e-001  0.000000e+000 -1.045286e-001
    outer loop
      vertex -3.227887e+001  0.000000e+000 -6.861086e+000
      vertex -3.300000e+001  2.660000e+001  0.000000e+000
      vertex -3.227887e+001  2.660000e+001 -6.861086e+000
    endloop
  endfacet
  facet normal -9.510566e-001  -0.000000e+000 -3.090170e-001
    outer loop
      vertex -3.227887e+001  0.000000e+000 -6.861086e+000
      vertex -3.227887e+001  2.660000e+001 -6.861086e+000
      vertex -3.014700e+001  0.000000e+000 -1.342231e+001
    endloop
  endfacet
  facet normal -9.510566e-001  0.000000e+000 -3.090170e-001
    outer loop
      vertex -3.014700e+001  0.000000e+000 -1.342231e+001
      vertex -3.227887e+001  2.660000e+001 -6.861086e+000
      vertex -3.014700e+001  2.660000e+001 -1.342231e+001
    endloop
  endfacet
  facet normal -8.660255e-001  -0.000000e+000 -4.999999e-001
    outer loop
      vertex -3.014700e+001  0.000000e+000 -1.342231e+001
      vertex -3.014700e+001  2.660000e+001 -1.342231e+001
      vertex -2.669756e+001  0.000000e+000 -1.939691e+001
    endloop
  endfacet
  facet normal -8.660255e-001  0.000000e+000 -4.999999e-001
    outer loop
      vertex -2.669756e+001  0.000000e+000 -1.939691e+001
      vertex -3.014700e+001  2.660000e+001 -1.342231e+001
      vertex -2.669756e+001  2.660000e+001 -1.939691e+001
    endloop
  endfacet
  facet normal -7.431448e-001  -0.000000e+000 -6.691306e-001
    outer loop
      vertex -2.669756e+001  0.000000e+000 -1.939691e+001
      vertex -2.669756e+001  2.660000e+001 -1.939691e+001
      vertex -2.208131e+001  0.000000e+000 -2.452378e+001
    endloop
  endfacet
  facet normal -7.431448e-001  0.000000e+000 -6.691306e-001
    outer loop
      vertex -2.208131e+001  0.000000e+000 -2.452378e+001
      vertex -2.669756e+001  2.660000e+001 -1.939691e+001
      vertex -2.208131e+001  2.660000e+001 -2.452378e+001
    endloop
  endfacet
  facet normal -5.877852e-001  -0.000000e+000 -8.090169e-001
    outer loop
      vertex -2.208131e+001  0.000000e+000 -2.452378e+001
      vertex -2.208131e+001  2.660000e+001 -2.452378e+001
      vertex -1.650000e+001  0.000000e+000 -2.857884e+001
    endloop
  endfacet
  facet normal -5.877852e-001  0.000000e+000 -8.090169e-001
    outer loop
      vertex -1.650000e+001  0.000000e+000 -2.857884e+001
      vertex -2.208131e+001  2.660000e+001 -2.452378e+001
      vertex -1.650000e+001  2.660000e+001 -2.857884e+001
    endloop
  endfacet
  facet normal -4.067367e-001  -0.000000e+000 -9.135455e-001
    outer loop
      vertex -1.650000e+001  0.000000e+000 -2.857884e+001
      vertex -1.650000e+001  2.660000e+001 -2.857884e+001
      vertex -1.019756e+001  0.000000e+000 -3.138486e+001
    endloop
  endfacet
  facet normal -4.067367e-001  0.000000e+000 -9.135455e-001
    outer loop
      vertex -1.019756e+001  0.000000e+000 -3.138486e+001
      vertex -1.650000e+001  2.660000e+001 -2.857884e+001
      vertex -1.019756e+001  2.660000e+001 -3.138486e+001
    endloop
  endfacet
  facet normal -2.079116e-001  -0.000000e+000 -9.781476e-001
    outer loop
      vertex -1.019756e+001  0.000000e+000 -3.138486e+001
      vertex -1.019756e+001  2.660000e+001 -3.138486e+001
      vertex -3.449439e+000  0.000000e+000 -3.281922e+001
    endloop
  endfacet
  facet normal -2.079116e-001  0.000000e+000 -9.781476e-001
    outer loop
      vertex -3.449439e+000  0.000000e+000 -3.281922e+001
      vertex -1.019756e+001  2.660000e+001 -3.138486e+001
      vertex -3.449439e+000  2.660000e+001 -3.281922e+001
    endloop
  endfacet
  facet normal  0.000000e+000  0.000000e+000 -1.000000e+000
    outer loop
      vertex -3.449439e+000  0.000000e+000 -3.281922e+001
      vertex -3.449439e+000  2.660000e+001 -3.281922e+001
      vertex  3.449439e+000  0.000000e+000 -3.281922e+001
    endloop
  endfacet
  facet normal  0.000000e+000  0.000000e+000 -1.000000e+000
    outer loop
      vertex  3.449439e+000  0.000000e+000 -3.281922e+001
      vertex -3.449439e+000  2.660000e+001 -3.281922e+001
      vertex  3.449439e+000  2.660000e+001 -3.281922e+001
    endloop
  endfacet
  facet normal  2.079116e-001  0.000000e+000 -9.781476e-001
    outer loop
      vertex  3.449439e+000  0.000000e+000 -3.281922e+001
      vertex  3.449439e+000  2.660000e+001 -3.281922e+001
      vertex  1.019756e+001  0.000000e+000 -3.138486e+001
    endloop
  endfacet
  facet normal  2.079116e-001  0.000000e+000 -9.781476e-001
    outer loop
      vertex  1.019756e+001  0.000000e+000 -3.138486e+001
      vertex  3.449439e+000  2.660000e+001 -3.281922e+001
      vertex  1.019756e+001  2.660000e+001 -3.138486e+001
    endloop
  endfacet
  facet normal  4.067367e-001  0.000000e+000 -9.135455e-001
    outer loop
      vertex  1.019756e+001  0.000000e+000 -3.138486e+001
      vertex  1.019756e+001  2.660000e+001 -3.138486e+001
      vertex  1.650000e+001  0.000000e+000 -2.857884e+001
    endloop
  endfacet
  facet normal  4.067367e-001  0.000000e+000 -9.135455e-001
    outer loop
      vertex  1.650000e+001  0.000000e+000 -2.857884e+001
      vertex  1.019756e+001  2.660000e+001 -3.138486e+001
      vertex  1.650000e+001  2.660000e+001 -2.857884e+001
    endloop
  endfacet
  facet normal  5.877852e-001  0.000000e+000 -8.090169e-001
    outer loop
      vertex  1.650000e+001  0.000000e+000 -2.857884e+001
      vertex  1.650000e+001  2.660000e+001 -2.857884e+001
      vertex  2.208131e+001  0.000000e+000 -2.452378e+001
    endloop
  endfacet
  facet normal  5.877852e-001  0.000000e+000 -8.090169e-001
    outer loop
      vertex  2.208131e+001  0.000000e+000 -2.452378e+001
      vertex  1.650000e+001  2.660000e+001 -2.857884e+001
      vertex  2.208131e+001  2.660000e+001 -2.452378e+001
    endloop
  endfacet
  facet normal  7.431448e-001  0.000000e+000 -6.691306e-001
    outer loop
      vertex  2.208131e+001  0.000000e+000 -2.452378e+001
      vertex  2.208131e+001  2.660000e+001 -2.452378e+001
      vertex  2.669756e+001  0.000000e+000 -1.939691e+001
    endloop
  endfacet
  facet normal  7.431448e-001  0.000000e+000 -6.691306e-001
    outer loop
      vertex  2.669756e+001  0.000000e+000 -1.939691e+001
      vertex  2.208131e+001  2.660000e+001 -2.452378e+001
      vertex  2.669756e+001  2.660000e+001 -1.939691e+001
    endloop
  endfacet
  facet normal  8.660255e-001  0.000000e+000 -4.999999e-001
    outer loop
      vertex  2.669756e+001  0.000000e+000 -1.939691e+001
      vertex  2.669756e+001  2.660000e+001 -1.939691e+001
      vertex  3.014700e+001  0.000000e+000 -1.342231e+001
    endloop
  endfacet
  facet normal  8.660255e-001  0.000000e+000 -4.999999e-001
    outer loop
      vertex  3.014700e+001  0.000000e+000 -1.342231e+001
      vertex  2.669756e+001  2.660000e+001 -1.939691e+001
      vertex  3.014700e+001  2.660000e+001 -1.342231e+001
    endloop
  endfacet
  facet normal  9.510566e-001  0.000000e+000 -3.090170e-001
    outer loop
      vertex  3.014700e+001  0.000000e+000 -1.342231e+001
      vertex  3.014700e+001  2.660000e+001 -1.342231e+001
      vertex  3.227887e+001  0.000000e+000 -6.861086e+000
    endloop
  endfacet
  facet normal  9.510566e-001  0.000000e+000 -3.090170e-001
    outer loop
      vertex  3.227887e+001  0.000000e+000 -6.861086e+000
      vertex  3.014700e+001  2.660000e+001 -1.342231e+001
      vertex  3.227887e+001  2.660000e+001 -6.861086e+000
    endloop
  endfacet
  facet normal  9.945219e-001  0.000000e+000 -1.045286e-001
    outer loop
      vertex  3.227887e+001  0.000000e+000 -6.861086e+000
      vertex  3.227887e+001  2.660000e+001 -6.861086e+000
      vertex  3.300000e+001  0.000000e+000  4.041201e-015
    endloop
  endfacet
  facet normal  9.945219e-001  0.000000e+000 -1.045286e-001
    outer loop
      vertex  3.300000e+001  0.000000e+000  4.041201e-015
      vertex  3.227887e+001  2.660000e+001 -6.861086e+000
      vertex  3.300000e+001  2.660000e+001  4.041201e-015
    endloop
  endfacet
  facet normal  9.945219e-001  0.000000e+000  1.045286e-001
    outer loop
      vertex  3.300000e+001  0.000000e+000  4.041201e-015
      vertex  3.300000e+001  2.660000e+001  4.041201e-015
      vertex  3.227887e+001  0.000000e+000  6.861086e+000
    endloop
  endfacet
  facet normal  9.945219e-001  -0.000000e+000  1.045286e-001
    outer loop
      vertex  3.227887e+001  0.000000e+000  6.861086e+000
      vertex  3.300000e+001  2.660000e+001  4.041201e-015
      vertex  3.227887e+001  2.660000e+001  6.861086e+000
    endloop
  endfacet
  facet normal  9.510566e-001  0.000000e+000  3.090170e-001
    outer loop
      vertex  3.227887e+001  0.000000e+000  6.861086e+000
      vertex  3.227887e+001  2.660000e+001  6.861086e+000
      vertex  3.014700e+001  0.000000e+000  1.342231e+001
    endloop
  endfacet
  facet normal  9.510566e-001  -0.000000e+000  3.090170e-001
    outer loop
      vertex  3.014700e+001  0.000000e+000  1.342231e+001
      vertex  3.227887e+001  2.660000e+001  6.861086e+000
      vertex  3.014700e+001  2.660000e+001  1.342231e+001
    endloop
  endfacet
  facet normal  8.660255e-001  0.000000e+000  4.999999e-001
    outer loop
      vertex  3.014700e+001  0.000000e+000  1.342231e+001
      vertex  3.014700e+001  2.660000e+001  1.342231e+001
      vertex  2.669756e+001  0.000000e+000  1.939691e+001
    endloop
  endfacet
  facet normal  8.660255e-001  -0.000000e+000  4.999999e-001
    outer loop
      vertex  2.669756e+001  0.000000e+000  1.939691e+001
      vertex  3.014700e+001  2.660000e+001  1.342231e+001
      vertex  2.669756e+001  2.660000e+001  1.939691e+001
    endloop
  endfacet
  facet normal  7.431448e-001  0.000000e+000  6.691306e-001
    outer loop
      vertex  2.669756e+001  0.000000e+000  1.939691e+001
      vertex  2.669756e+001  2.660000e+001  1.939691e+001
      vertex  2.208131e+001  0.000000e+000  2.452378e+001
    endloop
  endfacet
  facet normal  7.431448e-001  -0.000000e+000  6.691306e-001
    outer loop
      vertex  2.208131e+001  0.000000e+000  2.452378e+001
      vertex  2.669756e+001  2.660000e+001  1.939691e+001
      vertex  2.208131e+001  2.660000e+001  2.452378e+001
    endloop
  endfacet
  facet normal  5.877852e-001  0.000000e+000  8.090169e-001
    outer loop
      vertex  2.208131e+001  0.000000e+000  2.452378e+001
      vertex  2.208131e+001  2.660000e+001  2.452378e+001
      vertex  1.650000e+001  0.000000e+000  2.857884e+001
    endloop
  endfacet
  facet normal  5.877852e-001  -0.000000e+000  8.090169e-001
    outer loop
      vertex  1.650000e+001  0.000000e+000  2.857884e+001
      vertex  2.208131e+001  2.660000e+001  2.452378e+001
      vertex  1.650000e+001  2.660000e+001  2.857884e+001
    endloop
  endfacet
  facet normal  4.067367e-001  0.000000e+000  9.135455e-001
    outer loop
      vertex  1.650000e+001  0.000000e+000  2.857884e+001
      vertex  1.650000e+001  2.660000e+001  2.857884e+001
      vertex  1.019756e+001  0.000000e+000  3.138486e+001
    endloop
  endfacet
  facet normal  4.067367e-001  -0.000000e+000  9.135455e-001
    outer loop
      vertex  1.019756e+001  0.000000e+000  3.138486e+001
      vertex  1.650000e+001  2.660000e+001  2.857884e+001
      vertex  1.019756e+001  2.660000e+001  3.138486e+001
    endloop
  endfacet
  facet normal  2.079116e-001  0.000000e+000  9.781476e-001
    outer loop
      vertex  1.019756e+001  0.000000e+000  3.138486e+001
      vertex  1.019756e+001  2.660000e+001  3.138486e+001
      vertex  3.449439e+000  0.000000e+000  3.281922e+001
    endloop
  endfacet
  facet normal  2.079116e-001  -0.000000e+000  9.781476e-001
    outer loop
      vertex  3.449439e+000  0.000000e+000  3.281922e+001
      vertex  1.019756e+001  2.660000e+001  3.138486e+001
      vertex  3.449439e+000  2.660000e+001  3.281922e+001
    endloop
  endfacet
  facet normal  0.000000e+000  0.000000e+000  1.000000e+000
    outer loop
      vertex  3.449439e+000  0.000000e+000  3.281922e+001
      vertex  3.449439e+000  2.660000e+001  3.281922e+001
      vertex -3.449439e+000  0.000000e+000  3.281922e+001
    endloop
  endfacet
  facet normal  0.000000e+000  0.000000e+000  1.000000e+000
    outer loop
      vertex -3.449439e+000  0.000000e+000  3.281922e+001
      vertex  3.449439e+000  2.660000e+001  3.281922e+001
      vertex -3.449439e+000  2.660000e+001  3.281922e+001
    endloop
  endfacet
  facet normal -2.079116e-001  0.000000e+000  9.781476e-001
    outer loop
      vertex -3.449439e+000  0.000000e+000  3.281922e+001
      vertex -3.449439e+000  2.660000e+001  3.281922e+001
      vertex -1.019756e+001  0.000000e+000  3.138486e+001
    endloop
  endfacet
  facet normal -2.079116e-001  0.000000e+000  9.781476e-001
    outer loop
      vertex -1.019756e+001  0.000000e+000  3.138486e+001
      vertex -3.449439e+000  2.660000e+001  3.281922e+001
      vertex -1.019756e+001  2.660000e+001  3.138486e+001
    endloop
  endfacet
  facet normal -4.067367e-001  0.000000e+000  9.135455e-001
    outer loop
      vertex -1.019756e+001  0.000000e+000  3.138486e+001
      vertex -1.019756e+001  2.660000e+001  3.138486e+001
      vertex -1.650000e+001  0.000000e+000  2.857884e+001
    endloop
  endfacet
  facet normal -4.067367e-001  0.000000e+000  9.135455e-001
    outer loop
      vertex -1.650000e+001  0.000000e+000  2.857884e+001
      vertex -1.019756e+001  2.660000e+001  3.138486e+001
      vertex -1.650000e+001  2.660000e+001  2.857884e+001
    endloop
  endfacet
  facet normal -5.877852e-001  0.000000e+000  8.090169e-001
    outer loop
      vertex -1.650000e+001  0.000000e+000  2.857884e+001
      vertex -1.650000e+001  2.660000e+001  2.857884e+001
      vertex -2.208131e+001  0.000000e+000  2.452378e+001
    endloop
  endfacet
  facet normal -5.877852e-001  0.000000e+000  8.090169e-001
    outer loop
      vertex -2.208131e+001  0.000000e+000  2.452378e+001
      vertex -1.650000e+001  2.660000e+001  2.857884e+001
      vertex -2.208131e+001  2.660000e+001  2.452378e+001
    endloop
  endfacet
  facet normal -7.431448e-001  0.000000e+000  6.691306e-001
    outer loop
      vertex -2.208131e+001  0.000000e+000  2.452378e+001
      vertex -2.208131e+001  2.660000e+001  2.452378e+001
      vertex -2.669756e+001  0.000000e+000  1.939691e+001
    endloop
  endfacet
  facet normal -7.431448e-001  0.000000e+000  6.691306e-001
    outer loop
      vertex -2.669756e+001  0.000000e+000  1.939691e+001
      vertex -2.208131e+001  2.660000e+001  2.452378e+001
      vertex -2.669756e+001  2.660000e+001  1.939691e+001
    endloop
  endfacet
  facet normal -8.660255e-001  0.000000e+000  4.999999e-001
    outer loop
      vertex -2.669756e+001  0.000000e+000  1.939691e+001
      vertex -2.669756e+001  2.660000e+001  1.939691e+001
      vertex -3.014700e+001  0.000000e+000  1.342231e+001
    endloop
  endfacet
  facet normal -8.660255e-001  0.000000e+000  4.999999e-001
    outer loop
      vertex -3.014700e+001  0.000000e+000  1.342231e+001
      vertex -2.669756e+001  2.660000e+001  1.939691e+001
      vertex -3.014700e+001  2.660000e+001  1.342231e+001
    endloop
  endfacet
  facet normal -9.510566e-001  0.000000e+000  3.090170e-001
    outer loop
      vertex -3.014700e+001  0.000000e+000  1.342231e+001
      vertex -3.014700e+001  2.660000e+001  1.342231e+001
      vertex -3.227887e+001  0.000000e+000  6.861086e+000
    endloop
  endfacet
  facet normal -9.510566e-001  0.000000e+000  3.090170e-001
    outer loop
      vertex -3.227887e+001  0.000000e+000  6.861086e+000
      vertex -3.014700e+001  2.660000e+001  1.342231e+001
      vertex -3.227887e+001  2.660000e+001  6.861086e+000
    endloop
  endfacet
  facet normal -9.945219e-001  0.000000e+000  1.045286e-001
    outer loop
      vertex -3.227887e+001  0.000000e+000  6.861086e+000
      vertex -3.227887e+001  2.660000e+001  6.861086e+000
      vertex -3.300000e+001  0.000000e+000  0.000000e+000
    endloop
  endfacet
  facet normal -9.945219e-001  0.000000e+000  1.045286e-001
    outer loop
      vertex -3.300000e+001  0.000000e+000  0.000000e+000
      vertex -3.227887e+001  2.660000e+001  6.861086e+000
      vertex -3.300000e+001  2.660000e+001  0.000000e+000
    endloop
  endfacet
endsolid CATIA STL
