solid CATIA STL
  facet normal  0.000000e+000  0.000000e+000  9.999999e-001
    outer loop
      vertex -1.505000e+001  2.550000e+000  1.180000e+001
      vertex -9.050000e+000  2.550000e+000  1.180000e+001
      vertex -1.505000e+001  6.650000e+000  1.180000e+001
    endloop
  endfacet
  facet normal  -0.000000e+000  0.000000e+000  9.999999e-001
    outer loop
      vertex -1.505000e+001  6.650000e+000  1.180000e+001
      vertex -9.050000e+000  2.550000e+000  1.180000e+001
      vertex -9.050000e+000  6.650000e+000  1.180000e+001
    endloop
  endfacet
  facet normal  0.000000e+000  0.000000e+000  9.999999e-001
    outer loop
      vertex -1.505000e+001 -6.650000e+000  1.180000e+001
      vertex -9.050000e+000 -6.650000e+000  1.180000e+001
      vertex -1.505000e+001 -2.550000e+000  1.180000e+001
    endloop
  endfacet
  facet normal  -0.000000e+000  0.000000e+000  9.999999e-001
    outer loop
      vertex -1.505000e+001 -2.550000e+000  1.180000e+001
      vertex -9.050000e+000 -6.650000e+000  1.180000e+001
      vertex -9.050000e+000 -2.550000e+000  1.180000e+001
    endloop
  endfacet
  facet normal -1.000000e+000  0.000000e+000  0.000000e+000
    outer loop
      vertex -1.505000e+001  6.650000e+000  1.600000e+000
      vertex -1.505000e+001  2.550000e+000  1.180000e+001
      vertex -1.505000e+001  6.650000e+000  1.180000e+001
    endloop
  endfacet
  facet normal -1.000000e+000  0.000000e+000  0.000000e+000
    outer loop
      vertex -1.505000e+001  2.550000e+000  1.180000e+001
      vertex -1.505000e+001  6.650000e+000  1.600000e+000
      vertex -1.505000e+001  2.550000e+000  3.600000e+000
    endloop
  endfacet
  facet normal -1.000000e+000  0.000000e+000  -0.000000e+000
    outer loop
      vertex -1.505000e+001  2.550000e+000  3.600000e+000
      vertex -1.505000e+001  6.650000e+000  1.600000e+000
      vertex -1.505000e+001 -6.650000e+000  1.600000e+000
    endloop
  endfacet
  facet normal -9.999999e-001  0.000000e+000  0.000000e+000
    outer loop
      vertex -1.505000e+001  2.550000e+000  3.600000e+000
      vertex -1.505000e+001 -6.650000e+000  1.600000e+000
      vertex -1.505000e+001 -2.550000e+000  3.600000e+000
    endloop
  endfacet
  facet normal -1.000000e+000  -0.000000e+000  0.000000e+000
    outer loop
      vertex -1.505000e+001 -2.550000e+000  3.600000e+000
      vertex -1.505000e+001 -6.650000e+000  1.600000e+000
      vertex -1.505000e+001 -6.650000e+000  1.180000e+001
    endloop
  endfacet
  facet normal -1.000000e+000  0.000000e+000  0.000000e+000
    outer loop
      vertex -1.505000e+001 -2.550000e+000  3.600000e+000
      vertex -1.505000e+001 -6.650000e+000  1.180000e+001
      vertex -1.505000e+001 -2.550000e+000  1.180000e+001
    endloop
  endfacet
  facet normal  1.000000e+000  0.000000e+000  0.000000e+000
    outer loop
      vertex -9.050000e+000 -6.650000e+000  1.600000e+000
      vertex -9.050000e+000 -2.550000e+000  1.180000e+001
      vertex -9.050000e+000 -6.650000e+000  1.180000e+001
    endloop
  endfacet
  facet normal  1.000000e+000  0.000000e+000  0.000000e+000
    outer loop
      vertex -9.050000e+000 -2.550000e+000  1.180000e+001
      vertex -9.050000e+000 -6.650000e+000  1.600000e+000
      vertex -9.050000e+000 -2.550000e+000  3.600000e+000
    endloop
  endfacet
  facet normal  1.000000e+000  0.000000e+000  0.000000e+000
    outer loop
      vertex -9.050000e+000 -2.550000e+000  3.600000e+000
      vertex -9.050000e+000 -6.650000e+000  1.600000e+000
      vertex -9.050000e+000  6.650000e+000  1.600000e+000
    endloop
  endfacet
  facet normal  9.999999e-001  0.000000e+000  0.000000e+000
    outer loop
      vertex -9.050000e+000 -2.550000e+000  3.600000e+000
      vertex -9.050000e+000  6.650000e+000  1.600000e+000
      vertex -9.050000e+000  2.550000e+000  3.600000e+000
    endloop
  endfacet
  facet normal  1.000000e+000  -0.000000e+000  0.000000e+000
    outer loop
      vertex -9.050000e+000  2.550000e+000  3.600000e+000
      vertex -9.050000e+000  6.650000e+000  1.600000e+000
      vertex -9.050000e+000  6.650000e+000  1.180000e+001
    endloop
  endfacet
  facet normal  1.000000e+000  0.000000e+000  0.000000e+000
    outer loop
      vertex -9.050000e+000  2.550000e+000  3.600000e+000
      vertex -9.050000e+000  6.650000e+000  1.180000e+001
      vertex -9.050000e+000  2.550000e+000  1.180000e+001
    endloop
  endfacet
  facet normal  0.000000e+000  0.000000e+000  1.000000e+000
    outer loop
      vertex -1.505000e+001 -2.550000e+000  3.600000e+000
      vertex -9.050000e+000 -2.550000e+000  3.600000e+000
      vertex -1.505000e+001  2.550000e+000  3.600000e+000
    endloop
  endfacet
  facet normal  -0.000000e+000  0.000000e+000  1.000000e+000
    outer loop
      vertex -1.505000e+001  2.550000e+000  3.600000e+000
      vertex -9.050000e+000 -2.550000e+000  3.600000e+000
      vertex -9.050000e+000  2.550000e+000  3.600000e+000
    endloop
  endfacet
  facet normal  0.000000e+000  9.999999e-001  -0.000000e+000
    outer loop
      vertex -9.050000e+000 -2.550000e+000  1.180000e+001
      vertex -9.050000e+000 -2.550000e+000  3.600000e+000
      vertex -1.505000e+001 -2.550000e+000  1.180000e+001
    endloop
  endfacet
  facet normal  0.000000e+000  9.999999e-001  0.000000e+000
    outer loop
      vertex -1.505000e+001 -2.550000e+000  1.180000e+001
      vertex -9.050000e+000 -2.550000e+000  3.600000e+000
      vertex -1.505000e+001 -2.550000e+000  3.600000e+000
    endloop
  endfacet
  facet normal  0.000000e+000 -9.999999e-001  0.000000e+000
    outer loop
      vertex -1.505000e+001  2.550000e+000  1.180000e+001
      vertex -1.505000e+001  2.550000e+000  3.600000e+000
      vertex -9.050000e+000  2.550000e+000  1.180000e+001
    endloop
  endfacet
  facet normal  0.000000e+000 -9.999999e-001  -0.000000e+000
    outer loop
      vertex -9.050000e+000  2.550000e+000  1.180000e+001
      vertex -1.505000e+001  2.550000e+000  3.600000e+000
      vertex -9.050000e+000  2.550000e+000  3.600000e+000
    endloop
  endfacet
  facet normal  0.000000e+000  0.000000e+000  1.000000e+000
    outer loop
      vertex  1.565000e+001 -7.100000e+000  1.600000e+000
      vertex -9.050000e+000 -6.650000e+000  1.600000e+000
      vertex -1.565000e+001 -7.100000e+000  1.600000e+000
    endloop
  endfacet
  facet normal  0.000000e+000  0.000000e+000  1.000000e+000
    outer loop
      vertex -1.565000e+001 -7.100000e+000  1.600000e+000
      vertex -9.050000e+000 -6.650000e+000  1.600000e+000
      vertex -1.505000e+001 -6.650000e+000  1.600000e+000
    endloop
  endfacet
  facet normal  0.000000e+000  0.000000e+000  9.999999e-001
    outer loop
      vertex -1.565000e+001 -7.100000e+000  1.600000e+000
      vertex -1.505000e+001 -6.650000e+000  1.600000e+000
      vertex -1.565000e+001  7.100000e+000  1.600000e+000
    endloop
  endfacet
  facet normal  0.000000e+000  0.000000e+000  1.000000e+000
    outer loop
      vertex -1.565000e+001  7.100000e+000  1.600000e+000
      vertex -1.505000e+001 -6.650000e+000  1.600000e+000
      vertex -1.505000e+001  6.650000e+000  1.600000e+000
    endloop
  endfacet
  facet normal  0.000000e+000  -0.000000e+000  1.000000e+000
    outer loop
      vertex -1.565000e+001  7.100000e+000  1.600000e+000
      vertex -1.505000e+001  6.650000e+000  1.600000e+000
      vertex  1.565000e+001  7.100000e+000  1.600000e+000
    endloop
  endfacet
  facet normal  0.000000e+000  0.000000e+000  1.000000e+000
    outer loop
      vertex  1.565000e+001  7.100000e+000  1.600000e+000
      vertex -1.505000e+001  6.650000e+000  1.600000e+000
      vertex -9.050000e+000  6.650000e+000  1.600000e+000
    endloop
  endfacet
  facet normal  -0.000000e+000  0.000000e+000  1.000000e+000
    outer loop
      vertex  1.565000e+001  7.100000e+000  1.600000e+000
      vertex -9.050000e+000  6.650000e+000  1.600000e+000
      vertex  1.565000e+001 -7.100000e+000  1.600000e+000
    endloop
  endfacet
  facet normal  0.000000e+000  0.000000e+000  9.999999e-001
    outer loop
      vertex  1.565000e+001 -7.100000e+000  1.600000e+000
      vertex -9.050000e+000  6.650000e+000  1.600000e+000
      vertex -9.050000e+000 -6.650000e+000  1.600000e+000
    endloop
  endfacet
  facet normal  0.000000e+000 -1.000000e+000  -0.000000e+000
    outer loop
      vertex -9.050000e+000 -6.650000e+000  1.600000e+000
      vertex -9.050000e+000 -6.650000e+000  1.180000e+001
      vertex -1.505000e+001 -6.650000e+000  1.600000e+000
    endloop
  endfacet
  facet normal  0.000000e+000 -1.000000e+000  0.000000e+000
    outer loop
      vertex -1.505000e+001 -6.650000e+000  1.600000e+000
      vertex -9.050000e+000 -6.650000e+000  1.180000e+001
      vertex -1.505000e+001 -6.650000e+000  1.180000e+001
    endloop
  endfacet
  facet normal  0.000000e+000  1.000000e+000  0.000000e+000
    outer loop
      vertex -1.505000e+001  6.650000e+000  1.600000e+000
      vertex -1.505000e+001  6.650000e+000  1.180000e+001
      vertex -9.050000e+000  6.650000e+000  1.600000e+000
    endloop
  endfacet
  facet normal  0.000000e+000  1.000000e+000  -0.000000e+000
    outer loop
      vertex -9.050000e+000  6.650000e+000  1.600000e+000
      vertex -1.505000e+001  6.650000e+000  1.180000e+001
      vertex -9.050000e+000  6.650000e+000  1.180000e+001
    endloop
  endfacet
  facet normal  0.000000e+000  0.000000e+000 -9.999999e-001
    outer loop
      vertex -1.565000e+001 -7.100000e+000  0.000000e+000
      vertex -1.565000e+001  7.100000e+000  0.000000e+000
      vertex  1.565000e+001 -7.100000e+000  0.000000e+000
    endloop
  endfacet
  facet normal  0.000000e+000  0.000000e+000 -9.999999e-001
    outer loop
      vertex  1.565000e+001 -7.100000e+000  0.000000e+000
      vertex -1.565000e+001  7.100000e+000  0.000000e+000
      vertex  1.565000e+001  7.100000e+000  0.000000e+000
    endloop
  endfacet
  facet normal  1.000000e+000  -0.000000e+000  0.000000e+000
    outer loop
      vertex  1.565000e+001  7.100000e+000  1.600000e+000
      vertex  1.565000e+001 -7.100000e+000  1.600000e+000
      vertex  1.565000e+001  7.100000e+000  0.000000e+000
    endloop
  endfacet
  facet normal  1.000000e+000  0.000000e+000  0.000000e+000
    outer loop
      vertex  1.565000e+001  7.100000e+000  0.000000e+000
      vertex  1.565000e+001 -7.100000e+000  1.600000e+000
      vertex  1.565000e+001 -7.100000e+000  0.000000e+000
    endloop
  endfacet
  facet normal  0.000000e+000 -1.000000e+000  0.000000e+000
    outer loop
      vertex  1.565000e+001 -7.100000e+000  1.600000e+000
      vertex -1.565000e+001 -7.100000e+000  1.600000e+000
      vertex  1.565000e+001 -7.100000e+000  0.000000e+000
    endloop
  endfacet
  facet normal  0.000000e+000 -1.000000e+000  0.000000e+000
    outer loop
      vertex  1.565000e+001 -7.100000e+000  0.000000e+000
      vertex -1.565000e+001 -7.100000e+000  1.600000e+000
      vertex -1.565000e+001 -7.100000e+000  0.000000e+000
    endloop
  endfacet
  facet normal -1.000000e+000  -0.000000e+000  0.000000e+000
    outer loop
      vertex -1.565000e+001 -7.100000e+000  1.600000e+000
      vertex -1.565000e+001  7.100000e+000  1.600000e+000
      vertex -1.565000e+001 -7.100000e+000  0.000000e+000
    endloop
  endfacet
  facet normal -1.000000e+000  0.000000e+000  0.000000e+000
    outer loop
      vertex -1.565000e+001 -7.100000e+000  0.000000e+000
      vertex -1.565000e+001  7.100000e+000  1.600000e+000
      vertex -1.565000e+001  7.100000e+000  0.000000e+000
    endloop
  endfacet
  facet normal  0.000000e+000  1.000000e+000  0.000000e+000
    outer loop
      vertex -1.565000e+001  7.100000e+000  1.600000e+000
      vertex  1.565000e+001  7.100000e+000  1.600000e+000
      vertex -1.565000e+001  7.100000e+000  0.000000e+000
    endloop
  endfacet
  facet normal  0.000000e+000  1.000000e+000  0.000000e+000
    outer loop
      vertex -1.565000e+001  7.100000e+000  0.000000e+000
      vertex  1.565000e+001  7.100000e+000  1.600000e+000
      vertex  1.565000e+001  7.100000e+000  0.000000e+000
    endloop
  endfacet
endsolid CATIA STL
