solid CATIA STL
  facet normal -1.000000e+000  -0.000000e+000  0.000000e+000
    outer loop
      vertex  0.000000e+000 -2.375000e+001  1.500000e+001
      vertex  0.000000e+000 -1.762500e+001 -1.200000e+001
      vertex  0.000000e+000 -2.375000e+001 -1.500000e+001
    endloop
  endfacet
  facet normal -1.000000e+000  0.000000e+000  0.000000e+000
    outer loop
      vertex  0.000000e+000 -2.375000e+001 -1.500000e+001
      vertex  0.000000e+000 -1.762500e+001 -1.200000e+001
      vertex  0.000000e+000  1.762500e+001 -1.200000e+001
    endloop
  endfacet
  facet normal -1.000000e+000  0.000000e+000  -0.000000e+000
    outer loop
      vertex  0.000000e+000 -2.375000e+001 -1.500000e+001
      vertex  0.000000e+000  1.762500e+001 -1.200000e+001
      vertex  0.000000e+000  2.375000e+001 -1.500000e+001
    endloop
  endfacet
  facet normal -1.000000e+000  0.000000e+000  0.000000e+000
    outer loop
      vertex  0.000000e+000 -1.762500e+001 -1.200000e+001
      vertex  0.000000e+000 -2.375000e+001  1.500000e+001
      vertex  0.000000e+000 -1.762500e+001  1.200000e+001
    endloop
  endfacet
  facet normal -1.000000e+000  0.000000e+000  0.000000e+000
    outer loop
      vertex  0.000000e+000 -1.762500e+001  1.200000e+001
      vertex  0.000000e+000 -2.375000e+001  1.500000e+001
      vertex  0.000000e+000  2.375000e+001  1.500000e+001
    endloop
  endfacet
  facet normal -1.000000e+000  0.000000e+000  0.000000e+000
    outer loop
      vertex  0.000000e+000 -1.762500e+001  1.200000e+001
      vertex  0.000000e+000  2.375000e+001  1.500000e+001
      vertex  0.000000e+000  1.762500e+001  1.200000e+001
    endloop
  endfacet
  facet normal -1.000000e+000  0.000000e+000  0.000000e+000
    outer loop
      vertex  0.000000e+000  1.762500e+001  1.200000e+001
      vertex  0.000000e+000  2.375000e+001  1.500000e+001
      vertex  0.000000e+000  2.375000e+001 -1.500000e+001
    endloop
  endfacet
  facet normal -1.000000e+000  0.000000e+000  0.000000e+000
    outer loop
      vertex  0.000000e+000  1.762500e+001  1.200000e+001
      vertex  0.000000e+000  2.375000e+001 -1.500000e+001
      vertex  0.000000e+000  1.762500e+001 -1.200000e+001
    endloop
  endfacet
  facet normal  1.000000e+000  0.000000e+000  0.000000e+000
    outer loop
      vertex  3.000000e+001  2.375000e+001 -1.500000e+001
      vertex  3.000000e+001  1.762500e+001 -1.200000e+001
      vertex  3.000000e+001 -2.375000e+001 -1.500000e+001
    endloop
  endfacet
  facet normal  1.000000e+000  0.000000e+000  0.000000e+000
    outer loop
      vertex  3.000000e+001 -2.375000e+001 -1.500000e+001
      vertex  3.000000e+001  1.762500e+001 -1.200000e+001
      vertex  3.000000e+001 -1.762500e+001 -1.200000e+001
    endloop
  endfacet
  facet normal  1.000000e+000  0.000000e+000  0.000000e+000
    outer loop
      vertex  3.000000e+001 -2.375000e+001 -1.500000e+001
      vertex  3.000000e+001 -1.762500e+001 -1.200000e+001
      vertex  3.000000e+001 -2.375000e+001  1.500000e+001
    endloop
  endfacet
  facet normal  1.000000e+000  0.000000e+000  0.000000e+000
    outer loop
      vertex  3.000000e+001 -2.375000e+001  1.500000e+001
      vertex  3.000000e+001 -1.762500e+001 -1.200000e+001
      vertex  3.000000e+001 -1.762500e+001  1.200000e+001
    endloop
  endfacet
  facet normal  1.000000e+000  0.000000e+000  -0.000000e+000
    outer loop
      vertex  3.000000e+001 -2.375000e+001  1.500000e+001
      vertex  3.000000e+001 -1.762500e+001  1.200000e+001
      vertex  3.000000e+001  2.375000e+001  1.500000e+001
    endloop
  endfacet
  facet normal  1.000000e+000  0.000000e+000  0.000000e+000
    outer loop
      vertex  3.000000e+001  2.375000e+001  1.500000e+001
      vertex  3.000000e+001 -1.762500e+001  1.200000e+001
      vertex  3.000000e+001  1.762500e+001  1.200000e+001
    endloop
  endfacet
  facet normal  1.000000e+000  -0.000000e+000  0.000000e+000
    outer loop
      vertex  3.000000e+001  2.375000e+001  1.500000e+001
      vertex  3.000000e+001  1.762500e+001  1.200000e+001
      vertex  3.000000e+001  2.375000e+001 -1.500000e+001
    endloop
  endfacet
  facet normal  1.000000e+000  0.000000e+000  0.000000e+000
    outer loop
      vertex  3.000000e+001  2.375000e+001 -1.500000e+001
      vertex  3.000000e+001  1.762500e+001  1.200000e+001
      vertex  3.000000e+001  1.762500e+001 -1.200000e+001
    endloop
  endfacet
  facet normal  0.000000e+000 -1.000000e+000  0.000000e+000
    outer loop
      vertex  3.000000e+001  1.762500e+001  1.200000e+001
      vertex  0.000000e+000  1.762500e+001  1.200000e+001
      vertex  3.000000e+001  1.762500e+001 -1.200000e+001
    endloop
  endfacet
  facet normal  0.000000e+000 -1.000000e+000  0.000000e+000
    outer loop
      vertex  3.000000e+001  1.762500e+001 -1.200000e+001
      vertex  0.000000e+000  1.762500e+001  1.200000e+001
      vertex  0.000000e+000  1.762500e+001 -1.200000e+001
    endloop
  endfacet
  facet normal  0.000000e+000  0.000000e+000  1.000000e+000
    outer loop
      vertex  0.000000e+000  1.762500e+001 -1.200000e+001
      vertex  0.000000e+000 -1.762500e+001 -1.200000e+001
      vertex  3.000000e+001  1.762500e+001 -1.200000e+001
    endloop
  endfacet
  facet normal  0.000000e+000  0.000000e+000  1.000000e+000
    outer loop
      vertex  3.000000e+001  1.762500e+001 -1.200000e+001
      vertex  0.000000e+000 -1.762500e+001 -1.200000e+001
      vertex  3.000000e+001 -1.762500e+001 -1.200000e+001
    endloop
  endfacet
  facet normal  0.000000e+000  1.000000e+000  0.000000e+000
    outer loop
      vertex  3.000000e+001 -1.762500e+001 -1.200000e+001
      vertex  0.000000e+000 -1.762500e+001 -1.200000e+001
      vertex  3.000000e+001 -1.762500e+001  1.200000e+001
    endloop
  endfacet
  facet normal  0.000000e+000  1.000000e+000  0.000000e+000
    outer loop
      vertex  3.000000e+001 -1.762500e+001  1.200000e+001
      vertex  0.000000e+000 -1.762500e+001 -1.200000e+001
      vertex  0.000000e+000 -1.762500e+001  1.200000e+001
    endloop
  endfacet
  facet normal  0.000000e+000  0.000000e+000 -1.000000e+000
    outer loop
      vertex  0.000000e+000 -1.762500e+001  1.200000e+001
      vertex  0.000000e+000  1.762500e+001  1.200000e+001
      vertex  3.000000e+001 -1.762500e+001  1.200000e+001
    endloop
  endfacet
  facet normal  0.000000e+000  0.000000e+000 -1.000000e+000
    outer loop
      vertex  3.000000e+001 -1.762500e+001  1.200000e+001
      vertex  0.000000e+000  1.762500e+001  1.200000e+001
      vertex  3.000000e+001  1.762500e+001  1.200000e+001
    endloop
  endfacet
  facet normal  0.000000e+000  1.000000e+000  0.000000e+000
    outer loop
      vertex  0.000000e+000  2.375000e+001  1.500000e+001
      vertex  3.000000e+001  2.375000e+001  1.500000e+001
      vertex  0.000000e+000  2.375000e+001 -1.500000e+001
    endloop
  endfacet
  facet normal  0.000000e+000  1.000000e+000  0.000000e+000
    outer loop
      vertex  0.000000e+000  2.375000e+001 -1.500000e+001
      vertex  3.000000e+001  2.375000e+001  1.500000e+001
      vertex  3.000000e+001  2.375000e+001 -1.500000e+001
    endloop
  endfacet
  facet normal  0.000000e+000  0.000000e+000 -1.000000e+000
    outer loop
      vertex  3.000000e+001  2.375000e+001 -1.500000e+001
      vertex  3.000000e+001 -2.375000e+001 -1.500000e+001
      vertex  0.000000e+000  2.375000e+001 -1.500000e+001
    endloop
  endfacet
  facet normal  0.000000e+000  0.000000e+000 -1.000000e+000
    outer loop
      vertex  0.000000e+000  2.375000e+001 -1.500000e+001
      vertex  3.000000e+001 -2.375000e+001 -1.500000e+001
      vertex  0.000000e+000 -2.375000e+001 -1.500000e+001
    endloop
  endfacet
  facet normal  0.000000e+000 -1.000000e+000  0.000000e+000
    outer loop
      vertex  0.000000e+000 -2.375000e+001 -1.500000e+001
      vertex  3.000000e+001 -2.375000e+001 -1.500000e+001
      vertex  0.000000e+000 -2.375000e+001  1.500000e+001
    endloop
  endfacet
  facet normal  0.000000e+000 -1.000000e+000  0.000000e+000
    outer loop
      vertex  0.000000e+000 -2.375000e+001  1.500000e+001
      vertex  3.000000e+001 -2.375000e+001 -1.500000e+001
      vertex  3.000000e+001 -2.375000e+001  1.500000e+001
    endloop
  endfacet
  facet normal  0.000000e+000  0.000000e+000  1.000000e+000
    outer loop
      vertex  3.000000e+001 -2.375000e+001  1.500000e+001
      vertex  3.000000e+001  2.375000e+001  1.500000e+001
      vertex  0.000000e+000 -2.375000e+001  1.500000e+001
    endloop
  endfacet
  facet normal  0.000000e+000  0.000000e+000  1.000000e+000
    outer loop
      vertex  0.000000e+000 -2.375000e+001  1.500000e+001
      vertex  3.000000e+001  2.375000e+001  1.500000e+001
      vertex  0.000000e+000  2.375000e+001  1.500000e+001
    endloop
  endfacet
endsolid CATIA STL
